# xmcd
#
# Track frame offsets: 
#        150
#        10200
#        20345
#        31417
#        44322
#        56270
#        69922
#        81375
#        93530
#        108792
#        123862
#        136625
#        149835
#        163260
#        174232
#        191150
#        213120
#        230182
#
# Disc length: 3382 seconds
#
# Revision: 1
# Processed by: cddbd v1.5.2PL0 Copyright (c) Steve Scherf et al.
# Submitted via: ExactAudioCopy v0.95b4
#
DISCID=f20d3412
DTITLE=Conway Twitty - Ultimate Collection
DYEAR=1900
DGENRE=Country
TTITLE0=It's Only Make Believe
TTITLE1=Lonely Blue Boy
TTITLE2=Hello Darlin'
TTITLE3=Next In Line
TTITLE4=After The Fire Is Gone (Conway Twitty and Loretta Lynn)
TTITLE5=You've Never Been This Far Before
TTITLE6=Louisiana Woman, Mississippi Man (Conway Twitty and Loretta Ly
TTITLE6=nn)
TTITLE7=Linda On My Mind
TTITLE8=Play Guitar Play
TTITLE9=I'd Love To Lay You Down
TTITLE10=Tight Fittin' Jeans
TTITLE11=Slow Hand
TTITLE12=I Don't Know A Thing About Love (The Moon Song)
TTITLE13=Desperado Love
TTITLE14=Julia
TTITLE15=That's My Job
TTITLE16=Crazy In Love
TTITLE17=Rainy Night In Georgia (Conway Twitty and Sam Moore)
EXTD=
EXTT0=
EXTT1=
EXTT2=
EXTT3=
EXTT4=
EXTT5=
EXTT6=
EXTT7=
EXTT8=
EXTT9=
EXTT10=
EXTT11=
EXTT12=
EXTT13=
EXTT14=
EXTT15=
EXTT16=
EXTT17=
PLAYORDER=
